<svg xmlns="http://www.w3.org/2000/svg" width="50" height="50" viewBox="0 0 50 50" fill="#fff"><path style="text-indent:0;text-align:start;line-height:normal;text-transform:none;block-progression:tb;-inkscape-font-specification:Bitstream Vera Sans" d="M10 0C4.488 0 0 4.488 0 10v30c0 5.512 4.488 10 10 10h30c5.512 0 10-4.488 10-10V10c0-5.512-4.488-10-10-10H10zm0 2h30c4.432 0 8 3.568 8 8v30c0 4.432-3.568 8-8 8h-6V29h4.844l.156-.844 1-6L40.188 21H34v-2c0-.557.063-.597.25-.719.187-.121.756-.281 1.75-.281h4v-6.719l-.688-.219S36.133 10 33 10c-2.914 0-5.069.974-6.344 2.656C25.381 14.34 25 16.55 25 19v2h-3v8h3v19H10c-4.432 0-8-3.568-8-8V10c0-4.432 3.568-8 8-8zm23 10c2.173 0 4.177.515 5 .75V16h-2c-1.15 0-2.067.09-2.844.594C32.38 17.098 32 18.06 32 19v4h5.813l-.688 4H32v21h-5V27h-3v-4h3v-4c0-2.226.38-4.008 1.25-5.156C29.12 12.696 30.495 12 33 12z" color="#000" overflow="visible" font-family="Bitstream Vera Sans"/></svg>