<svg xmlns="http://www.w3.org/2000/svg" width="50" height="50" viewBox="0 0 50 50" fill="#fff"><path d="M10.406 0C4.971 0 .496 4.235.062 9.563a1.001 1.001 0 0 0-.03.03 1.001 1.001 0 0 0-.032.688 1.001 1.001 0 0 0 0 .031v29.282C0 45.31 4.687 50 10.406 50h29.188C45.314 50 50 45.31 50 39.594V10.407c0-.064.001-.126 0-.188v-.031a1 1 0 0 0-.031-.5 1 1 0 0 0-.032-.094C49.519 4.252 45.04 0 39.594 0H10.406zm0 2h29.188c4.146 0 7.604 3.043 8.281 7H2.125c.677-3.957 4.135-7 8.281-7zM2 11h46V39.594C48 44.219 44.223 48 39.594 48H10.406C5.778 48 2 44.218 2 39.594V11zm16.563 5c-1.944 0-4.42.301-6.47 2.031-1.556 1.35-2.312 3.248-2.312 4.938 0 2.864 2.177 5.75 6 5.75.36 0 .755-.028 1.156-.063-.184.445-.375.823-.375 1.438 0 1.143.587 1.813 1.094 2.468-1.627.116-4.677.325-6.906 1.72-2.134 1.286-2.781 3.149-2.781 4.468 0 2.717 2.519 5.25 7.75 5.25 6.203 0 9.5-3.486 9.5-6.938 0-2.526-1.446-3.767-3.032-5.124l-1.28-1.032c-.398-.324-.97-.787-.97-1.593 0-.804.565-1.333 1.032-1.813C22.485 26.295 24 24.965 24 22.25c0-2.793-1.733-4.212-2.563-5.031h2.22L25.968 16h-7.407zm-2.282 1.25c2.993 0 4.532 4.1 4.532 6.75 0 .654-.052 1.808-.875 2.656-.581.585-1.56 1.032-2.47 1.032-3.096 0-4.53-4.07-4.53-6.532 0-.952.2-1.926.812-2.687.582-.743 1.594-1.219 2.531-1.219zM34 24v5h-5v4h5v5h4v-5h5v-4h-5v-5h-4zm-15.969 9.625c.364 0 .555-.004.844.031 2.739 1.981 3.938 2.971 3.938 4.844-.002 2.274-1.849 3.969-5.313 3.969-3.858 0-6.344-1.894-6.344-4.5s2.298-3.486 3.094-3.782c1.517-.515 3.457-.562 3.781-.562z" fill-rule="evenodd"/></svg>