<svg xmlns="http://www.w3.org/2000/svg" width="50" height="50" viewBox="0 0 50 50" fill="#fff"><path style="text-indent:0;text-align:start;line-height:normal;text-transform:none;block-progression:tb;-inkscape-font-specification:Bitstream Vera Sans" d="M10 0C4.488 0 0 4.488 0 10v30c0 5.512 4.488 10 10 10h30c5.512 0 10-4.488 10-10V10c0-5.512-4.488-10-10-10H10zm0 2h30c4.432 0 8 3.568 8 8v30c0 4.432-3.568 8-8 8H10c-4.432 0-8-3.568-8-8V10c0-4.432 3.568-8 8-8zm30.5 3C39.13 5 38 6.13 38 7.5v3c0 1.37 1.13 2.5 2.5 2.5h3c1.37 0 2.5-1.13 2.5-2.5v-3C46 6.13 44.87 5 43.5 5h-3zm0 2h3c.282 0 .5.218.5.5v3c0 .282-.218.5-.5.5h-3a.493.493 0 0 1-.5-.5v-3c0-.282.218-.5.5-.5zM25 10c-4.456 0-8.467 1.96-11.219 5.063a1 1 0 0 0-.406-.063H5a1 1 0 0 0-.094 0A1 1 0 0 0 4 16v23.781C4 43.206 6.794 46 10.219 46H39.78C43.206 46 46 43.206 46 39.781V16a1 1 0 0 0-1-1h-8.438a1 1 0 0 0-.374.063C33.435 11.969 29.447 10 25 10zm0 2c7.177 0 13 5.823 13 13s-5.823 13-13 13-13-5.823-13-13 5.823-13 13-13zm-.094 2a1 1 0 0 0-.093.031 1 1 0 0 0-.188.031 1 1 0 0 0-.031.032C18.73 14.32 14 19.08 14 25c0 6.064 4.938 11 11 11s11-4.936 11-11c0-5.899-4.697-10.646-10.531-10.906-.034-.002-.06-.03-.094-.031a1 1 0 0 0-.313-.063H25a1 1 0 0 0-.094 0zm.032 2A1 1 0 0 0 25 16c4.982 0 9 4.016 9 9s-4.018 9-9 9-9-4.016-9-9a8.986 8.986 0 0 1 8.938-9zM6 17h6.344A14.852 14.852 0 0 0 10 25c0 8.261 6.739 15 15 15s15-6.739 15-15c0-2.944-.868-5.679-2.344-8H44v22.781C44 42.121 42.12 44 39.781 44H10.22A4.207 4.207 0 0 1 6 39.781V17z" color="#000" overflow="visible" font-family="Bitstream Vera Sans"/></svg>