<svg version="1" xmlns="http://www.w3.org/2000/svg" width="1594.667" height="545.333" viewBox="0 0 1196.000000 409.000000"><path d="M207.5 15.1c-12.5 2.5-27.4 13-32.4 22.7-4.8 9.3-6.3 21.5-4 32.4 2.5 12 8.1 21.6 33.5 57.4 31.4 44.1 39.5 59.9 39.8 77.4.2 14.7-5.3 23.2-17.2 26.6-17.9 5.2-33.8-9.2-44.1-39.9-4.8-14.5-7.1-26.9-7.1-38.1 0-8.1-.9-10.6-3.7-10.6-1 0-1.3 9.2-1.3 47.5 0 38.7.2 47.5 1.3 47.5.7 0 5.5-2.7 10.7-6 5.1-3.3 10.1-6.2 11.1-6.5 1.2-.4 3.6.9 7.3 3.8 7.7 6.4 14.9 8.9 27.1 9.5 16.5.8 30.6-4.2 41.1-14.3 14.5-14.2 16.4-35.5 5.5-61.7-4.5-10.7-13.6-25.4-31.3-50.4-21.3-30.2-25-35.9-31.2-47.6-8.7-16.5-10.6-26.8-6.7-35.5 4-8.7 17.7-12.6 27.6-7.8 14.6 7 23.6 26.9 32.5 71.8 1 5.1 1.4 5.8 3.3 5.5l2.2-.3.3-42.3c.1-23.3-.1-42.2-.6-42-.4.1-6 3-12.4 6.2l-11.6 5.9-5.1-3.7c-2.9-2.1-7.4-4.7-10.2-5.7-6.1-2.3-17.6-3.2-24.4-1.8zM292 18.5c0 1.2 1.6 1.5 8 1.5h8v212.9l-7.7.3c-6.1.2-7.8.6-7.8 1.8 0 1.3 4.5 1.5 33.4 1.8 22.5.1 33.8-.1 34.5-.8 1.6-1.6-1.2-3-6.1-3H350V124h27v109h-3.2c-3.9 0-6.3 1.3-5.4 2.9.8 1.2 65.7 1.6 66.9.4.4-.3.2-1.2-.4-2-.8-.8-3.5-1.3-8-1.3H420V20.1l7.2-.3c4.6-.2 7.3-.7 7.6-1.6.3-1-6.6-1.2-33.7-1-21.7.2-34.2.7-34.4 1.3-.1.5 2.2 1.1 5.1 1.3l5.2.3V120h-27V20h4.5c3.3 0 4.5-.4 4.5-1.5 0-1.3-4.4-1.5-33.5-1.5s-33.5.2-33.5 1.5zM445.7 17.6c-1.6 1.6 1 2.4 7.9 2.4h7.4v212.9l-6.7.3c-5.5.2-6.8.6-7.1 2.1-.3 1.6 1.7 1.7 35.5 1.5 31-.3 35.8-.5 35.8-1.8 0-1.2-1.7-1.6-7.7-1.8l-7.8-.3v-50.7c0-29.6.4-50.1.9-49.2.5.8 9.3 23.1 19.6 49.5s18.9 48.5 19.2 49.2c.3.9-1.6 1.3-6.9 1.5-5.7.2-7.3.6-7.3 1.8 0 1.3 4.7 1.5 34.8 1.8 32.8.2 34.8.1 34.5-1.5-.2-1.4-1.5-1.9-5.8-2.1l-5.5-.3-27.3-72.9-27.4-72.9 13.3-22.4c22.9-38.8 25.8-42.1 39.4-44 4.9-.7 7.5-1.5 7.5-2.4 0-1-5.7-1.3-28.1-1.3-22 0-28 .3-27.7 1.2.3.8 3 1.6 6.2 1.9 9.5 1.1 14.4 6.3 13.2 14.2-.4 2.3-2.6 7.7-4.9 11.9-9.6 17.4-46.3 79.7-46.9 79.8-.5 0-.8-23.8-.8-53V20.1l7.8-.3c4.3-.2 7.7-.7 7.7-1.3 0-1.1-71.7-2-72.8-.9zM607 18.5c0 1.2 1.4 1.5 7 1.5h7v213h-6.2c-6.8 0-10 1.2-8.2 3 .7.7 12.5.9 36 .8 30.2-.3 34.9-.5 34.9-1.8 0-1.2-1.5-1.6-6.7-1.8l-6.8-.3V125.7l9.3.5c10.4.6 13 1.5 15.7 6.1 1.9 3 2 5.4 2 45.7 0 26.1.4 43.9 1 46.2 1.5 5.3 5.1 9.2 11.2 11.9 4.7 2.1 6.8 2.4 18.3 2.4 12.5 0 13.3-.1 19.6-3.1 8.7-4.1 14.1-9.2 16.9-15.7 2.9-6.7 3.8-16.8 1.7-18.5-2.8-2.4-4.3-.4-5.5 7.4-2 12.9-7.4 20.4-14.6 20.4-5.4 0-5.6-1.6-5.6-36 0-26.1-.3-32.6-1.6-37-4.2-14.3-17-24.1-38.1-29.2-5.1-1.2-9.3-2.5-9.3-2.8 0-.3 3-1.4 6.8-2.4 16.6-4.3 31-14.4 37.4-26.3 7.6-13.9 7.8-34.5.4-49.1-6.4-12.7-21.8-23.9-37.8-27.7-9.4-2.2-84.8-2.2-84.8 0zm79.1 3.5c1.5.7 3.2 2.3 3.8 3.7.7 1.6 1.1 15.7 1.1 44.4 0 47.4.1 46.6-7.3 50-3 1.3-6.5 1.9-11.9 1.9H664V19.7l9.8.5c5.3.3 10.9 1.1 12.3 1.8zM767.2 18.2c.3.9 3.1 1.4 8.1 1.6l7.7.3V233h-7.2c-7.5 0-10.6 1-9.4 2.9.5.8 17.9 1.1 61.2 1.1H888l-.2-45.8c-.3-44.9-.3-45.7-2.3-45.7-1.8 0-2.1 1-3.1 12.2-2.5 26.5-11.2 49.4-24 63.3-7.5 8-14.2 11.2-25.1 11.8l-8.3.5v-50.6c0-30.4.4-51.6 1-53.1 2.8-7.4 17.3 1.1 23.8 13.9 3.3 6.6 4.5 12.3 5.1 25 .6 11.1.7 12 2.6 12 2 0 2-.7 2-55.5V69.5l-2.2-.3c-2.3-.3-2.3-.1-2.3 10-.1 25.9-9.3 41.3-26.1 43.5l-3.9.6V20h8.4c16.8 0 22.4 2.4 29.5 12.8 10.7 15.9 18 37.2 19.7 58.2.6 7.5.9 8.1 2.8 7.8 2.1-.3 2.1-.5 2.4-41.1L888 17h-60.6c-48 0-60.5.3-60.2 1.2zM896.2 18.2c.3.9 2.9 1.4 8.1 1.6l7.7.3V233h-6.7c-7.4 0-10.6 1.1-8.7 3 .9.9 11.7 1.1 38.5.7 41.3-.4 43.6-.7 57.5-7.3 14.7-6.9 24.1-20.7 30.1-43.9l2.8-11V128c0-51.1-.2-53.1-6.5-71.7-6.9-20.2-18-30.9-38.5-36.9-5.2-1.5-11.5-1.8-45.4-2.1-32.1-.4-39.2-.2-38.9.9zm78.4 4.1c6.1 3.2 5.9-1 5.9 104.7 0 106 .3 100.9-6 103.9-1.7.8-6.7 1.7-11.2 1.9l-8.3.5V19.7l8.3.5c4.8.3 9.5 1.1 11.3 2.1zM14 273.5v9.5h1168v-19H14v9.5zM413 296.7c-5.5 2.2-6.7 7.8-2.4 11.2 7.5 5.9 19.7-2 13.2-8.5-2.4-2.5-8-3.9-10.8-2.7zM375.5 298c.3.5 1.7 1 3.1 1h2.4v28.8l-3.7-1.9c-4.7-2.4-7-2.4-11 .1-6.6 4-9.1 11.6-10 30.5-.6 14.7.5 24.4 3.8 31.1 3.8 8 10.7 10.4 17.2 6 3.5-2.4 3.7-2.4 3.7-.6 0 1.9.7 2 9.5 2 5.7 0 9.5-.4 9.5-1s-.9-1-2-1c-2 0-2-.7-2-48v-48h-10.6c-6.7 0-10.3.4-9.9 1zm1 29.6c4 1.6 4.5 5.1 4.5 32.4 0 23-.2 26.6-1.7 29.1-2.2 3.7-5.2 4.7-7 2.3-1-1.4-1.3-8.5-1.3-31.9 0-32.9.2-33.9 5.5-31.9zM457.4 326.5c-2.7 1.4-5 2.5-5.1 2.5-.2 0-.3-.9-.3-2 0-1.9-.7-2-9.5-2-5.7 0-9.5.4-9.5 1 0 .5.9 1 2 1 2 0 2 .7 2 33s0 33-2 33c-1.1 0-2 .4-2 1s4.3 1 11 1 11-.4 11-1-.7-1-1.6-1c-1.4 0-1.5-3-1.2-29.3.3-26.3.5-29.6 2.1-32.1 1.3-1.8 2.5-2.6 4-2.4l2.2.3.3 31.4c.2 24.1-.1 31.6-1 32.2-2.5 1.6.2 2 10.8 1.6 7.2-.2 10.1-.6 8.7-1.1l-2.3-.8V363c0-33.2-.3-35.4-5.6-37.6-4.8-2-8.4-1.7-14 1.1zM510.4 326.5c-2.7 1.4-5 2.5-5.1 2.5-.2 0-.3-.9-.3-2 0-1.9-.7-2-9.5-2-5.7 0-9.5.4-9.5 1 0 .5.9 1 2 1 2 0 2 .7 2 33s0 33-2 33c-1.1 0-2 .4-2 1s4.3 1 11 1 11-.4 11-1-.7-1-1.6-1c-1.4 0-1.5-3-1.2-29.3.3-26.3.5-29.6 2.1-32.1 1.3-1.8 2.5-2.6 4-2.4l2.2.3.3 31.4c.2 24.1-.1 31.6-1 32.2-2.5 1.6.2 2 10.8 1.6 7.2-.2 10.1-.6 8.7-1.1l-2.3-.8V363c0-33.2-.3-35.4-5.6-37.6-4.8-2-8.4-1.7-14 1.1zM554.8 324.9c-5.2 1.7-8.7 5.2-12 11.9l-3.3 6.7V360c.1 19.8 1.5 26 7 30.9 8.2 7.1 20.7 6.2 26.8-2.1 3.6-5 5.7-11.2 5.7-17.3 0-6.8-1.7-7.2-2.5-.8-1.2 9.6-2.8 13.5-7 18-3.6 3.7-4.7 4.3-8.3 4.3-3.1 0-4.4-.5-5.2-1.9-.5-1.1-1-8.4-1-16.5V360h24.2l-.3-10.8c-.4-10-.7-11.3-3.4-15.7-1.7-2.7-4.4-5.7-6.1-6.7-3.7-2.1-10.9-3.1-14.6-1.9zm8 2.3c.8.8 1.2 5.9 1.2 16.5V359h-9v-15.3c0-16.1.4-17.7 4.5-17.7 1.2 0 2.6.5 3.3 1.2zM610.8 325.6c-1.5.8-3.6 2.9-4.5 4.7l-1.8 3.2-.3-4.3-.3-4.2h-10c-6.4 0-9.8.4-9.4 1 .3.5 1.5 1 2.6 1 1.8 0 1.9 1 1.9 33s-.1 33-1.9 33c-1.1 0-2.3.4-2.6 1-.4.6 4 1 12.4 1 8.1 0 13.1-.4 13.1-1s-1.3-1-3-1h-3v-22.3c0-31 1.5-39.4 7.6-43.3 3.8-2.5 5.3-.4 2.5 3.4-3 4.3-3.6 8.3-1.7 12.1 1.4 2.6 2.2 3.1 5.5 3.1 5.4 0 8.1-3.1 8.1-9.6 0-5.6-1.7-8.7-6-10.9-3.6-1.9-5.7-1.8-9.2.1zM718.7 325.1c-8.9 2.1-12.7 5.9-12.7 12.5 0 4.6 1.2 6.1 5.8 7 6.3 1.3 11.2-1.6 11.2-6.5 0-3.8-3.3-6.5-8-6.6h-3.9l2.3-2.4c3.5-3.5 11.6-4.1 14.5-1.2 1.9 1.9 2.1 3.2 2.1 13v10.9l-8.6 2.1c-10 2.5-13.9 4.3-15.4 7-.5 1.1-1 8.3-1 16 0 12.6.2 14.3 1.9 16 4.3 4.3 14 3.6 19.9-1.4l3-2.5 1.6 2.5c1.9 2.9 8.2 5 12.8 4.1 4.4-.8 9.8-4.2 9.8-6.1 0-1.3-.6-1.1-3 .6-2.4 1.8-3.2 2-4.5.9-1.3-1.1-1.5-5.4-1.5-30.9 0-29.6 0-29.8-2.2-31.9-4-3.7-15.3-5.2-24.1-3.1zm9.7 61.5c-1.7 3.6-4.7 5.9-6.4 4.9-1.2-.7-1.3-32.4-.2-34.2.4-.7 2.3-1.9 4.2-2.7l3.5-1.4.3 14.9c.2 12.3 0 15.6-1.4 18.5zM780.8 325.6c-1.5.8-3.6 2.9-4.5 4.7l-1.8 3.2-.3-4.3-.3-4.2h-10c-6.4 0-9.8.4-9.4 1 .3.5 1.5 1 2.6 1 1.8 0 1.9 1 1.9 33s-.1 33-1.9 33c-1.1 0-2.3.4-2.6 1-.4.6 4 1 12.4 1 8.1 0 13.1-.4 13.1-1s-1.3-1-3-1h-3v-22.3c0-31 1.5-39.4 7.6-43.3 3.8-2.5 5.3-.4 2.5 3.4-3 4.3-3.6 8.3-1.7 12.1 1.4 2.6 2.2 3.1 5.5 3.1 5.4 0 8.1-3.1 8.1-9.6 0-5.6-1.7-8.7-6-10.9-3.6-1.9-5.7-1.8-9.2.1zM815.8 324.9c-5.2 1.7-8.7 5.2-12 11.9l-3.3 6.7V360c.1 19.8 1.5 26 7 30.9 8.2 7.1 20.7 6.2 26.8-2.1 3.6-5 5.7-11.2 5.7-17.3 0-6.8-1.7-7.2-2.5-.8-1.2 9.6-2.8 13.5-7 18-3.6 3.7-4.7 4.3-8.3 4.3-3.1 0-4.4-.5-5.2-1.9-.5-1.1-1-8.4-1-16.5V360h24.2l-.3-10.8c-.4-10-.7-11.3-3.4-15.7-1.7-2.7-4.4-5.7-6.1-6.7-3.7-2.1-10.9-3.1-14.6-1.9zm8 2.3c.8.8 1.2 5.9 1.2 16.5V359h-9v-15.3c0-16.1.4-17.7 4.5-17.7 1.2 0 2.6.5 3.3 1.2zM404 326c0 .5 1.1 1 2.5 1h2.5v33c0 32.3 0 33-2 33-1.1 0-2 .4-2 1s4.7 1 12 1 12-.4 12-1-1.1-1-2.5-1H424v-68h-10c-6 0-10 .4-10 1zM629 325.9c0 .5.5 1.1 1.1 1.3.5.2 3.5 14.1 6.4 30.8 3 16.8 5.7 32 6 33.7.6 3.1.8 3.3 5.1 3.3 3.6 0 4.6-.4 5.4-2.3.6-1.2 3-11.9 5.4-23.7 2.4-11.8 4.6-20.8 4.9-20 .3.8 2.2 10.7 4.2 22s3.8 21.3 4.1 22.2c.4 1.4 1.6 1.8 4.9 1.8 5.3 0 4.1 3.5 12.1-34.5 5.6-26.8 7.2-32.1 10-33.2 3.3-1.2 1-2.3-5.1-2.3-3.7 0-6.5.4-6.5 1 0 .5.6 1 1.3 1 .7 0 2.1.6 3.1 1.3 1.8 1.3 1.7 2.3-2.9 23-2.7 12-5 21.5-5.2 21.3-.3-.3-8.3-43.2-8.3-44.9 0-.4 1.1-.7 2.5-.7s2.5-.5 2.5-1c0-.6-4.7-1-12.1-1-7.7 0-11.8.4-11.4 1 .3.5 1.2 1 1.9 1 .9 0 1.7 2.6 2.5 7.2 1.1 6.9 1 8.1-2.4 23.2-1.9 8.7-3.6 16.1-3.8 16.2-.2.2-2.1-10.1-4.3-22.9l-4-23.2 2.3-.3c1.3-.2 2.3-.8 2.3-1.3s-4.9-.9-11-.9c-6 0-11 .4-11 .9z"/></svg>