<svg version="1" xmlns="http://www.w3.org/2000/svg" width="1594.667" height="393.333" viewBox="0 0 1196.000000 295.000000"><g fill="#333"><path d="M207.5 15.1c-12.5 2.5-27.4 13-32.4 22.7-4.8 9.3-6.3 21.5-4 32.4 2.5 12 8.1 21.6 33.5 57.4 31.4 44.1 39.5 59.9 39.8 77.4.2 14.7-5.3 23.2-17.2 26.6-17.9 5.2-33.8-9.2-44.1-39.9-4.8-14.5-7.1-26.9-7.1-38.1 0-8.1-.9-10.6-3.7-10.6-1 0-1.3 9.2-1.3 47.5 0 38.7.2 47.5 1.3 47.5.7 0 5.5-2.7 10.7-6 5.1-3.3 10.1-6.2 11.1-6.5 1.2-.4 3.6.9 7.3 3.8 7.7 6.4 14.9 8.9 27.1 9.5 16.5.8 30.6-4.2 41.1-14.3 14.5-14.2 16.4-35.5 5.5-61.7-4.5-10.7-13.6-25.4-31.3-50.4-21.3-30.2-25-35.9-31.2-47.6-8.7-16.5-10.6-26.8-6.7-35.5 4-8.7 17.7-12.6 27.6-7.8 14.6 7 23.6 26.9 32.5 71.8 1 5.1 1.4 5.8 3.3 5.5l2.2-.3.3-42.3c.1-23.3-.1-42.2-.6-42-.4.1-6 3-12.4 6.2l-11.6 5.9-5.1-3.7c-2.9-2.1-7.4-4.7-10.2-5.7-6.1-2.3-17.6-3.2-24.4-1.8zM292 18.5c0 1.2 1.6 1.5 8 1.5h8v212.9l-7.7.3c-6.1.2-7.8.6-7.8 1.8 0 1.3 4.5 1.5 33.4 1.8 22.5.1 33.8-.1 34.5-.8 1.6-1.6-1.2-3-6.1-3H350V124h27v109h-3.2c-3.9 0-6.3 1.3-5.4 2.9.8 1.2 65.7 1.6 66.9.4.4-.3.2-1.2-.4-2-.8-.8-3.5-1.3-8-1.3H420V20.1l7.2-.3c4.6-.2 7.3-.7 7.6-1.6.3-1-6.6-1.2-33.7-1-21.7.2-34.2.7-34.4 1.3-.1.5 2.2 1.1 5.1 1.3l5.2.3V120h-27V20h4.5c3.3 0 4.5-.4 4.5-1.5 0-1.3-4.4-1.5-33.5-1.5s-33.5.2-33.5 1.5zM445.7 17.6c-1.6 1.6 1 2.4 7.9 2.4h7.4v212.9l-6.7.3c-5.5.2-6.8.6-7.1 2.1-.3 1.6 1.7 1.7 35.5 1.5 31-.3 35.8-.5 35.8-1.8 0-1.2-1.7-1.6-7.7-1.8l-7.8-.3v-50.7c0-29.6.4-50.1.9-49.2.5.8 9.3 23.1 19.6 49.5s18.9 48.5 19.2 49.2c.3.9-1.6 1.3-6.9 1.5-5.7.2-7.3.6-7.3 1.8 0 1.3 4.7 1.5 34.8 1.8 32.8.2 34.8.1 34.5-1.5-.2-1.4-1.5-1.9-5.8-2.1l-5.5-.3-27.3-72.9-27.4-72.9 13.3-22.4c22.9-38.8 25.8-42.1 39.4-44 4.9-.7 7.5-1.5 7.5-2.4 0-1-5.7-1.3-28.1-1.3-22 0-28 .3-27.7 1.2.3.8 3 1.6 6.2 1.9 9.5 1.1 14.4 6.3 13.2 14.2-.4 2.3-2.6 7.7-4.9 11.9-9.6 17.4-46.3 79.7-46.9 79.8-.5 0-.8-23.8-.8-53V20.1l7.8-.3c4.3-.2 7.7-.7 7.7-1.3 0-1.1-71.7-2-72.8-.9zM607 18.5c0 1.2 1.4 1.5 7 1.5h7v213h-6.2c-6.8 0-10 1.2-8.2 3 .7.7 12.5.9 36 .8 30.2-.3 34.9-.5 34.9-1.8 0-1.2-1.5-1.6-6.7-1.8l-6.8-.3V125.7l9.3.5c10.4.6 13 1.5 15.7 6.1 1.9 3 2 5.4 2 45.7 0 26.1.4 43.9 1 46.2 1.5 5.3 5.1 9.2 11.2 11.9 4.7 2.1 6.8 2.4 18.3 2.4 12.5 0 13.3-.1 19.6-3.1 8.7-4.1 14.1-9.2 16.9-15.7 2.9-6.7 3.8-16.8 1.7-18.5-2.8-2.4-4.3-.4-5.5 7.4-2 12.9-7.4 20.4-14.6 20.4-5.4 0-5.6-1.6-5.6-36 0-26.1-.3-32.6-1.6-37-4.2-14.3-17-24.1-38.1-29.2-5.1-1.2-9.3-2.5-9.3-2.8 0-.3 3-1.4 6.8-2.4 16.6-4.3 31-14.4 37.4-26.3 7.6-13.9 7.8-34.5.4-49.1-6.4-12.7-21.8-23.9-37.8-27.7-9.4-2.2-84.8-2.2-84.8 0zm79.1 3.5c1.5.7 3.2 2.3 3.8 3.7.7 1.6 1.1 15.7 1.1 44.4 0 47.4.1 46.6-7.3 50-3 1.3-6.5 1.9-11.9 1.9H664V19.7l9.8.5c5.3.3 10.9 1.1 12.3 1.8zM767.2 18.2c.3.9 3.1 1.4 8.1 1.6l7.7.3V233h-7.2c-7.5 0-10.6 1-9.4 2.9.5.8 17.9 1.1 61.2 1.1H888l-.2-45.8c-.3-44.9-.3-45.7-2.3-45.7-1.8 0-2.1 1-3.1 12.2-2.5 26.5-11.2 49.4-24 63.3-7.5 8-14.2 11.2-25.1 11.8l-8.3.5v-50.6c0-30.4.4-51.6 1-53.1 2.8-7.4 17.3 1.1 23.8 13.9 3.3 6.6 4.5 12.3 5.1 25 .6 11.1.7 12 2.6 12 2 0 2-.7 2-55.5V69.5l-2.2-.3c-2.3-.3-2.3-.1-2.3 10-.1 25.9-9.3 41.3-26.1 43.5l-3.9.6V20h8.4c16.8 0 22.4 2.4 29.5 12.8 10.7 15.9 18 37.2 19.7 58.2.6 7.5.9 8.1 2.8 7.8 2.1-.3 2.1-.5 2.4-41.1L888 17h-60.6c-48 0-60.5.3-60.2 1.2zM896.2 18.2c.3.9 2.9 1.4 8.1 1.6l7.7.3V233h-6.7c-7.4 0-10.6 1.1-8.7 3 .9.9 11.7 1.1 38.5.7 41.3-.4 43.6-.7 57.5-7.3 14.7-6.9 24.1-20.7 30.1-43.9l2.8-11V128c0-51.1-.2-53.1-6.5-71.7-6.9-20.2-18-30.9-38.5-36.9-5.2-1.5-11.5-1.8-45.4-2.1-32.1-.4-39.2-.2-38.9.9zm78.4 4.1c6.1 3.2 5.9-1 5.9 104.7 0 106 .3 100.9-6 103.9-1.7.8-6.7 1.7-11.2 1.9l-8.3.5V19.7l8.3.5c4.8.3 9.5 1.1 11.3 2.1zM14 273.5v9.5h1168v-19H14v9.5z"/></g></svg>