<svg xmlns="http://www.w3.org/2000/svg" width="50" height="50" viewBox="0 0 50 50" fill="#fff"><path style="text-indent:0;text-align:start;line-height:normal;text-transform:none;block-progression:tb;-inkscape-font-specification:Bitstream Vera Sans" d="M10.406 0C4.686 0 0 4.69 0 10.406v29.188C0 45.31 4.687 50 10.406 50h29.188C45.314 50 50 45.31 50 39.594V10.406C50 4.69 45.313 0 39.594 0H10.406zm0 2h29.188C44.222 2 48 5.781 48 10.406v29.188C48 44.219 44.223 48 39.594 48H10.406C5.778 48 2 44.219 2 39.594V10.406C2 5.781 5.778 2 10.406 2zm12.625 13c-1.278.004-2.387.073-3.343.531-.461.222-.803.508-1.063.844a1.37 1.37 0 0 0-.313.688c-.033.182-.064.471.125.78.19.31.546.47.782.5.225.03.745.244.843.376.043.057.199.5.25.906.052.405.063.75.063.75a1 1 0 0 0 0 .063s.078 1.05.031 2.125a8.578 8.578 0 0 1-.187 1.468c-.035.149.035.062 0 .125-.062-.044-.056-.025-.157-.125-.448-.444-1.19-1.438-2.187-3.125-.988-1.671-1.75-3.593-1.75-3.593a1 1 0 0 0-.031 0s-.132-.558-.75-1c-.589-.423-1.188-.47-1.188-.47a1 1 0 0 0-.187-.03H9.125a3.09 3.09 0 0 0-.531.03c-.32.044-.778.085-1.219.595a1 1 0 0 0-.031 0c-.393.46-.363.98-.313 1.28.05.302.157.532.157.532s3.866 8.404 8.28 13.125C18.639 34.766 21.883 35 24.657 35h2.032c.5 0 .916-.02 1.375-.281.458-.261.78-.914.78-1.375 0-.56.073-1.07.188-1.375.105-.28.177-.346.344-.407.024.013.064.03.156.094.23.157.57.508.938.907.734.797 1.563 1.85 2.625 2.562.767.516 1.493.763 2.031.844.437.066.686.016.813 0h.187l4.344-.063a1 1 0 0 0 .062 0s.752 0 1.5-.437c.374-.219.795-.616.938-1.219.143-.603-.04-1.216-.407-1.813.05.082-.06-.142-.187-.343-.127-.202-.296-.472-.563-.813-.533-.68-1.418-1.638-2.812-2.906-.714-.649-1.19-1.102-1.406-1.375-.216-.273-.177-.185-.157-.281.042-.192.92-1.361 2.657-3.625 1.067-1.394 1.806-2.537 2.281-3.469.475-.932.795-1.636.563-2.5a1.603 1.603 0 0 0-.626-.875 2.12 2.12 0 0 0-.78-.313c-.481-.09-.923-.062-1.344-.062-.876 0-4.792.031-5.126.031-.381 0-.877.119-1.156.281-.623.366-.843.875-.843.875a1 1 0 0 0-.032.125s-.796 2.064-1.812 3.75c-1.092 1.817-1.864 2.716-2.282 3.094-.04-.107-.07-.11-.093-.375-.044-.508 0-1.163 0-1.812 0-1.783.174-3.056.093-4.125-.04-.535-.16-1.053-.5-1.532-.34-.478-.897-.802-1.468-.937-.566-.134-1.134-.236-2.594-.25-.46-.005-.918-.001-1.344 0zm1.313 2c1.382.014 1.643.09 2.187.219.267.063.257.09.282.125.024.034.098.175.125.531.053.712-.094 2.083-.094 3.969 0 .526-.033 1.25.031 2 .064.749.245 1.681 1.094 2.218.303.192.789.26 1.187.157.399-.103.71-.313 1.063-.625.705-.624 1.554-1.688 2.718-3.625h-.03c1.11-1.844 1.857-3.81 1.906-3.938h.03s.041-.064.063-.093c.055-.033.055-.05.063-.063.007 0 .03-.004.031 0 .023.003.021.031.063.031.44 0 4.298-.031 5.124-.031.319 0 .523.016.72.031-.028.114-.027.25-.313.813-.385.754-1.072 1.822-2.094 3.156-1.696 2.212-2.705 3.04-3 4.406-.148.683.124 1.453.531 1.969.407.516.915.98 1.625 1.625 1.326 1.205 2.11 2.08 2.563 2.656.226.288.378.482.468.625.09.144.092.156.188.313.173.28.122.306.125.281-.151.088-.524.18-.563.188v-.032l-4.53.063a1 1 0 0 0-.157.031s-.04.01-.313-.031c-.271-.041-.702-.153-1.218-.5-.637-.428-1.447-1.408-2.25-2.282-.402-.436-.806-.83-1.282-1.156-.475-.326-1.16-.626-1.875-.406-.84.258-1.397.967-1.656 1.656-.211.564-.231 1.123-.25 1.688-.065.012-.033.031-.218.031h-2.032c-2.713 0-4.947-.035-7.718-3-3.816-4.081-7.398-11.514-7.72-12.188h4.657c.083.029.216.088.281.125 0 .02.068.094.094.125v.032c.01.026.821 1.976 1.906 3.812 1.034 1.749 1.765 2.864 2.469 3.563.352.349.717.603 1.156.75.44.146.994.11 1.375-.094.762-.406.893-1.07 1.032-1.656.138-.586.192-1.204.218-1.813.052-1.185-.027-2.223-.031-2.281v-.063c0-.051.003-.418-.063-.937-.07-.553-.174-1.234-.656-1.875-.09-.121-.213-.123-.312-.219.693-.143 1.562-.295 3-.281z" color="#000" overflow="visible" font-family="Bitstream Vera Sans"/></svg>