<svg xmlns="http://www.w3.org/2000/svg" width="50" height="50" viewBox="0 0 50 50" style="fill: rgb(255, 255, 255);">
    <path style="text-indent:0;text-align:start;line-height:normal;text-transform:none;block-progression:tb;-inkscape-font-specification:Bitstream Vera Sans" d="M 10 0 C 4.4879088 0 0 4.4879088 0 10 L 0 40 C 0 45.512091 4.4879088 50 10 50 L 40 50 C 45.512091 50 50 45.512091 50 40 L 50 10 C 50 4.4879088 45.512091 0 40 0 L 10 0 z M 10 2 L 40 2 C 44.431909 2 48 5.5680912 48 10 L 48 40 C 48 44.431909 44.431909 48 40 48 L 10 48 C 5.5680912 48 2 44.431909 2 40 L 2 10 C 2 5.5680912 5.5680912 2 10 2 z M 40.5 5 C 39.130013 5 38 6.1300129 38 7.5 L 38 10.5 C 38 11.869987 39.130013 13 40.5 13 L 43.5 13 C 44.869987 13 46 11.869987 46 10.5 L 46 7.5 C 46 6.1300129 44.869987 5 43.5 5 L 40.5 5 z M 40.5 7 L 43.5 7 C 43.782013 7 44 7.2179871 44 7.5 L 44 10.5 C 44 10.782013 43.782013 11 43.5 11 L 40.5 11 C 40.217987 11 40 10.782013 40 10.5 L 40 7.5 C 40 7.2179871 40.217987 7 40.5 7 z M 25 10 C 20.543898 10 16.532741 11.960015 13.78125 15.0625 A 1.0001 1.0001 0 0 0 13.375 15 L 5 15 A 1.0001 1.0001 0 0 0 4.90625 15 A 1.0001 1.0001 0 0 0 4 16 L 4 39.78125 C 4 43.205697 6.7943026 46 10.21875 46 L 39.78125 46 C 43.205697 46 46 43.205697 46 39.78125 L 46 16 A 1.0001 1.0001 0 0 0 45 15 L 36.5625 15 A 1.0001 1.0001 0 0 0 36.1875 15.0625 C 33.436407 11.96915 29.448541 10 25 10 z M 25 12 C 32.176529 12 38 17.823471 38 25 C 38 32.176529 32.176529 38 25 38 C 17.823471 38 12 32.176529 12 25 C 12 17.823471 17.823471 12 25 12 z M 24.90625 14 A 1.0001 1.0001 0 0 0 24.8125 14.03125 A 1.0001 1.0001 0 0 0 24.625 14.0625 A 1.0001 1.0001 0 0 0 24.59375 14.09375 C 18.730405 14.321406 14 19.080179 14 25 C 14 31.06443 18.937616 36 25 36 C 31.062384 36 36 31.06443 36 25 C 36 19.101425 31.302722 14.353561 25.46875 14.09375 C 25.43508 14.09225 25.40874 14.06369 25.375 14.0625 A 1.0001 1.0001 0 0 0 25.0625 14 C 25.04129 13.999879 25.02124 14 25 14 A 1.0001 1.0001 0 0 0 24.90625 14 z M 24.9375 16 A 1.0001 1.0001 0 0 0 25 16 C 29.981616 16 34 20.01643 34 25 C 34 29.98357 29.981616 34 25 34 C 20.018384 34 16 29.98357 16 25 C 16 20.037777 19.985496 16.034207 24.9375 16 z M 6 17 L 12.34375 17 C 10.868085 19.321336 10 22.055712 10 25 C 10 33.261471 16.738529 40 25 40 C 33.261471 40 40 33.261471 40 25 C 40 22.055712 39.131915 19.321336 37.65625 17 L 44 17 L 44 39.78125 C 44 42.120803 42.120803 44 39.78125 44 L 10.21875 44 C 7.8791974 44 6 42.120803 6 39.78125 L 6 17 z" color="#000" overflow="visible" enable-background="accumulate" font-family="Bitstream Vera Sans"/>
</svg>