<?xml version="1.0" standalone="no"?>
<!DOCTYPE svg PUBLIC "-//W3C//DTD SVG 20010904//EN"
 "http://www.w3.org/TR/2001/REC-SVG-20010904/DTD/svg10.dtd">
<svg version="1.0" xmlns="http://www.w3.org/2000/svg"
 width="1196.000000pt" height="409.000000pt" viewBox="0 0 1196.000000 409.000000"
 preserveAspectRatio="xMidYMid meet">
<metadata>
Created by potrace 1.13, written by Peter Selinger 2001-2015
</metadata>
<g transform="translate(0.000000,409.000000) scale(0.100000,-0.100000)"
fill="#000000" stroke="none">
<path d="M2075 3939 c-125 -25 -274 -130 -324 -227 -48 -93 -63 -215 -40 -324
25 -120 81 -216 335 -574 314 -441 395 -599 398 -774 2 -147 -53 -232 -172
-266 -179 -52 -338 92 -441 399 -48 145 -71 269 -71 381 0 81 -9 106 -37 106
-10 0 -13 -92 -13 -475 0 -387 2 -475 13 -475 7 0 55 27 107 60 51 33 101 62
111 65 12 4 36 -9 73 -38 77 -64 149 -89 271 -95 165 -8 306 42 411 143 145
142 164 355 55 617 -45 107 -136 254 -313 504 -213 302 -250 359 -312 476 -87
165 -106 268 -67 355 40 87 177 126 276 78 146 -70 236 -269 325 -718 10 -51
14 -58 33 -55 l22 3 3 423 c1 233 -1 422 -6 420 -4 -1 -60 -30 -124 -62 l-116
-59 -51 37 c-29 21 -74 47 -102 57 -61 23 -176 32 -244 18z"/>
<path d="M2920 3905 c0 -12 16 -15 80 -15 l80 0 0 -1065 0 -1064 -77 -3 c-61
-2 -78 -6 -78 -18 0 -13 45 -15 334 -18 225 -1 338 1 345 8 16 16 -12 30 -61
30 l-43 0 0 545 0 545 135 0 135 0 0 -545 0 -545 -32 0 c-39 0 -63 -13 -54
-29 8 -12 657 -16 669 -4 4 3 2 12 -4 20 -8 8 -35 13 -80 13 l-69 0 0 1065 0
1064 72 3 c46 2 73 7 76 16 3 10 -66 12 -337 10 -217 -2 -342 -7 -344 -13 -1
-5 22 -11 51 -13 l52 -3 0 -500 0 -499 -135 0 -135 0 0 500 0 500 45 0 c33 0
45 4 45 15 0 13 -44 15 -335 15 -291 0 -335 -2 -335 -15z"/>
<path d="M4457 3914 c-16 -16 10 -24 79 -24 l74 0 0 -1065 0 -1064 -67 -3
c-55 -2 -68 -6 -71 -21 -3 -16 17 -17 355 -15 310 3 358 5 358 18 0 12 -17 16
-77 18 l-78 3 0 507 c0 296 4 501 9 492 5 -8 93 -231 196 -495 103 -264 189
-485 192 -492 3 -9 -16 -13 -69 -15 -57 -2 -73 -6 -73 -18 0 -13 47 -15 348
-18 328 -2 348 -1 345 15 -2 14 -15 19 -58 21 l-55 3 -273 729 -274 729 133
224 c229 388 258 421 394 440 49 7 75 15 75 24 0 10 -57 13 -281 13 -220 0
-280 -3 -277 -12 3 -8 30 -16 62 -19 95 -11 144 -63 132 -142 -4 -23 -26 -77
-49 -119 -96 -174 -463 -797 -469 -798 -5 0 -8 238 -8 530 l0 529 78 3 c43 2
77 7 77 13 0 11 -717 20 -728 9z"/>
<path d="M6070 3905 c0 -12 14 -15 70 -15 l70 0 0 -1065 0 -1065 -62 0 c-68 0
-100 -12 -82 -30 7 -7 125 -9 360 -8 302 3 349 5 349 18 0 12 -15 16 -67 18
l-68 3 0 536 0 536 93 -5 c104 -6 130 -15 157 -61 19 -30 20 -54 20 -457 0
-261 4 -439 10 -462 15 -53 51 -92 112 -119 47 -21 68 -24 183 -24 125 0 133
1 196 31 87 41 141 92 169 157 29 67 38 168 17 185 -28 24 -43 4 -55 -74 -20
-129 -74 -204 -146 -204 -54 0 -56 16 -56 360 0 261 -3 326 -16 370 -42 143
-170 241 -381 292 -51 12 -93 25 -93 28 0 3 30 14 68 24 166 43 310 144 374
263 76 139 78 345 4 491 -64 127 -218 239 -378 277 -94 22 -848 22 -848 0z
m791 -35 c15 -7 32 -23 38 -37 7 -16 11 -157 11 -444 0 -474 1 -466 -73 -500
-30 -13 -65 -19 -119 -19 l-78 0 0 511 0 512 98 -5 c53 -3 109 -11 123 -18z"/>
<path d="M7672 3908 c3 -9 31 -14 81 -16 l77 -3 0 -1064 0 -1065 -72 0 c-75 0
-106 -10 -94 -29 5 -8 179 -11 612 -11 l604 0 -2 458 c-3 449 -3 457 -23 457
-18 0 -21 -10 -31 -122 -25 -265 -112 -494 -240 -633 -75 -80 -142 -112 -251
-118 l-83 -5 0 506 c0 304 4 516 10 531 28 74 173 -11 238 -139 33 -66 45
-123 51 -250 6 -111 7 -120 26 -120 20 0 20 7 20 555 l0 555 -22 3 c-23 3 -23
1 -23 -100 -1 -259 -93 -413 -261 -435 l-39 -6 0 517 0 516 84 0 c168 0 224
-24 295 -128 107 -159 180 -372 197 -582 6 -75 9 -81 28 -78 21 3 21 5 24 411
l2 407 -606 0 c-480 0 -605 -3 -602 -12z"/>
<path d="M8962 3908 c3 -9 29 -14 81 -16 l77 -3 0 -1064 0 -1065 -67 0 c-74 0
-106 -11 -87 -30 9 -9 117 -11 385 -7 413 4 436 7 575 73 147 69 241 207 301
439 l28 110 0 465 c0 511 -2 531 -65 717 -69 202 -180 309 -385 369 -52 15
-115 18 -454 21 -321 4 -392 2 -389 -9z m784 -41 c61 -32 59 10 59 -1047 0
-1060 3 -1009 -60 -1039 -17 -8 -67 -17 -112 -19 l-83 -5 0 1068 0 1068 83 -5
c48 -3 95 -11 113 -21z"/>
<path d="M140 1355 l0 -95 5840 0 5840 0 0 95 0 95 -5840 0 -5840 0 0 -95z"/>
<path d="M4130 1123 c-55 -22 -67 -78 -24 -112 75 -59 197 20 132 85 -24 25
-80 39 -108 27z"/>
<path d="M3755 1110 c3 -5 17 -10 31 -10 l24 0 0 -144 0 -144 -37 19 c-47 24
-70 24 -110 -1 -66 -40 -91 -116 -100 -305 -6 -147 5 -244 38 -311 38 -80 107
-104 172 -60 35 24 37 24 37 6 0 -19 7 -20 95 -20 57 0 95 4 95 10 0 6 -9 10
-20 10 -20 0 -20 7 -20 480 l0 480 -106 0 c-67 0 -103 -4 -99 -10z m10 -296
c40 -16 45 -51 45 -324 0 -230 -2 -266 -17 -291 -22 -37 -52 -47 -70 -23 -10
14 -13 85 -13 319 0 329 2 339 55 319z"/>
<path d="M4574 825 c-27 -14 -50 -25 -51 -25 -2 0 -3 9 -3 20 0 19 -7 20 -95
20 -57 0 -95 -4 -95 -10 0 -5 9 -10 20 -10 20 0 20 -7 20 -330 0 -323 0 -330
-20 -330 -11 0 -20 -4 -20 -10 0 -6 43 -10 110 -10 67 0 110 4 110 10 0 6 -7
10 -16 10 -14 0 -15 30 -12 293 3 263 5 296 21 321 13 18 25 26 40 24 l22 -3
3 -314 c2 -241 -1 -316 -10 -322 -25 -16 2 -20 108 -16 72 2 101 6 87 11 l-23
8 0 298 c0 332 -3 354 -56 376 -48 20 -84 17 -140 -11z"/>
<path d="M5104 825 c-27 -14 -50 -25 -51 -25 -2 0 -3 9 -3 20 0 19 -7 20 -95
20 -57 0 -95 -4 -95 -10 0 -5 9 -10 20 -10 20 0 20 -7 20 -330 0 -323 0 -330
-20 -330 -11 0 -20 -4 -20 -10 0 -6 43 -10 110 -10 67 0 110 4 110 10 0 6 -7
10 -16 10 -14 0 -15 30 -12 293 3 263 5 296 21 321 13 18 25 26 40 24 l22 -3
3 -314 c2 -241 -1 -316 -10 -322 -25 -16 2 -20 108 -16 72 2 101 6 87 11 l-23
8 0 298 c0 332 -3 354 -56 376 -48 20 -84 17 -140 -11z"/>
<path d="M5548 841 c-52 -17 -87 -52 -120 -119 l-33 -67 0 -165 c1 -198 15
-260 70 -309 82 -71 207 -62 268 21 36 50 57 112 57 173 0 68 -17 72 -25 8
-12 -96 -28 -135 -70 -180 -36 -37 -47 -43 -83 -43 -31 0 -44 5 -52 19 -5 11
-10 84 -10 165 l0 146 121 0 121 0 -3 108 c-4 100 -7 113 -34 157 -17 27 -44
57 -61 67 -37 21 -109 31 -146 19z m80 -23 c8 -8 12 -59 12 -165 l0 -153 -45
0 -45 0 0 153 c0 161 4 177 45 177 12 0 26 -5 33 -12z"/>
<path d="M6108 834 c-15 -8 -36 -29 -45 -47 l-18 -32 -3 43 -3 42 -100 0 c-64
0 -98 -4 -94 -10 3 -5 15 -10 26 -10 18 0 19 -10 19 -330 0 -320 -1 -330 -19
-330 -11 0 -23 -4 -26 -10 -4 -6 40 -10 124 -10 81 0 131 4 131 10 0 6 -13 10
-30 10 l-30 0 0 223 c0 310 15 394 76 433 38 25 53 4 25 -34 -30 -43 -36 -83
-17 -121 14 -26 22 -31 55 -31 54 0 81 31 81 96 0 56 -17 87 -60 109 -36 19
-57 18 -92 -1z"/>
<path d="M7187 839 c-89 -21 -127 -59 -127 -125 0 -46 12 -61 58 -70 63 -13
112 16 112 65 0 38 -33 65 -80 66 l-39 0 23 24 c35 35 116 41 145 12 19 -19
21 -32 21 -130 l0 -109 -86 -21 c-100 -25 -139 -43 -154 -70 -5 -11 -10 -83
-10 -160 0 -126 2 -143 19 -160 43 -43 140 -36 199 14 l30 25 16 -25 c19 -29
82 -50 128 -41 44 8 98 42 98 61 0 13 -6 11 -30 -6 -24 -18 -32 -20 -45 -9
-13 11 -15 54 -15 309 0 296 0 298 -22 319 -40 37 -153 52 -241 31z m97 -615
c-17 -36 -47 -59 -64 -49 -12 7 -13 324 -2 342 4 7 23 19 42 27 l35 14 3 -149
c2 -123 0 -156 -14 -185z"/>
<path d="M7808 834 c-15 -8 -36 -29 -45 -47 l-18 -32 -3 43 -3 42 -100 0 c-64
0 -98 -4 -94 -10 3 -5 15 -10 26 -10 18 0 19 -10 19 -330 0 -320 -1 -330 -19
-330 -11 0 -23 -4 -26 -10 -4 -6 40 -10 124 -10 81 0 131 4 131 10 0 6 -13 10
-30 10 l-30 0 0 223 c0 310 15 394 76 433 38 25 53 4 25 -34 -30 -43 -36 -83
-17 -121 14 -26 22 -31 55 -31 54 0 81 31 81 96 0 56 -17 87 -60 109 -36 19
-57 18 -92 -1z"/>
<path d="M8158 841 c-52 -17 -87 -52 -120 -119 l-33 -67 0 -165 c1 -198 15
-260 70 -309 82 -71 207 -62 268 21 36 50 57 112 57 173 0 68 -17 72 -25 8
-12 -96 -28 -135 -70 -180 -36 -37 -47 -43 -83 -43 -31 0 -44 5 -52 19 -5 11
-10 84 -10 165 l0 146 121 0 121 0 -3 108 c-4 100 -7 113 -34 157 -17 27 -44
57 -61 67 -37 21 -109 31 -146 19z m80 -23 c8 -8 12 -59 12 -165 l0 -153 -45
0 -45 0 0 153 c0 161 4 177 45 177 12 0 26 -5 33 -12z"/>
<path d="M4040 830 c0 -5 11 -10 25 -10 l25 0 0 -330 c0 -323 0 -330 -20 -330
-11 0 -20 -4 -20 -10 0 -6 47 -10 120 -10 73 0 120 4 120 10 0 6 -11 10 -25
10 l-25 0 0 340 0 340 -100 0 c-60 0 -100 -4 -100 -10z"/>
<path d="M6290 831 c0 -5 5 -11 11 -13 5 -2 35 -141 64 -308 30 -168 57 -320
60 -337 6 -31 8 -33 51 -33 36 0 46 4 54 23 6 12 30 119 54 237 24 118 46 208
49 200 3 -8 22 -107 42 -220 20 -113 38 -213 41 -222 4 -14 16 -18 49 -18 53
0 41 -35 121 345 56 268 72 321 100 332 33 12 10 23 -51 23 -37 0 -65 -4 -65
-10 0 -5 6 -10 13 -10 7 0 21 -6 31 -13 18 -13 17 -23 -29 -230 -27 -120 -50
-215 -52 -213 -3 3 -83 432 -83 449 0 4 11 7 25 7 14 0 25 5 25 10 0 6 -47 10
-121 10 -77 0 -118 -4 -114 -10 3 -5 12 -10 19 -10 9 0 17 -26 25 -72 11 -69
10 -81 -24 -232 -19 -87 -36 -161 -38 -162 -2 -2 -21 101 -43 229 l-40 232 23
3 c13 2 23 8 23 13 0 5 -49 9 -110 9 -60 0 -110 -4 -110 -9z"/>
</g>
</svg>
